<svg xmlns="http://www.w3.org/2000/svg" viewBox="0 0 422.28 534.56"><defs><style>.cls-1{fill:#fff;}</style></defs><g id="Layer_2" data-name="Layer 2"><g id="Layer_1-2" data-name="Layer 1"><path class="cls-1" d="M211.15,61.5c.83,1.65,1.67,3,2.25,4.5,10.27,26,29.39,39.83,57,43.45,21.54,2.81,42.85,7.37,64.32,10.81C345.7,122,352,127.16,355,138.55c6.28,23.75,14.32,47,21.12,70.66,2.32,8.06,3.09,16.57,3.59,25-2.86-6.84-5.19-14-8.69-20.48a88,88,0,0,0-47-41.26c-14.67-5.64-30.06-9.43-45.13-14-6.36-1.93-12.76-3.69-19.09-5.7-16.53-5.26-30.84-13.76-41.51-27.9-4.48-5.93-9.71-6.55-13.69-1.07-14.53,20-36,27.38-58.28,33.76-17.22,4.91-34.84,9.15-51.18,16.23-26.41,11.44-44.83,31.06-51.91,59.91-.24.95-.68,1.84-1.49,4,.34-14.77,3.32-27.74,7.29-40.5,7-22.37,14.19-44.65,21.07-67,1.18-3.84,3.26-6.1,7-6.87q24.6-5.07,49.22-10c15.27-3.08,30.72-5.5,45.8-9.35,12.4-3.16,21.59-11.52,28.11-22.52C204,75,207.36,68.42,211.15,61.5Z"/><path class="cls-1" d="M326.14,63.22c-27.46-4.11-53.57-7.95-79.64-12a45.84,45.84,0,0,1-10.92-3.36c-3.2-1.38-6.08-3.51-8.82-5.13-1.78,13.57,9.55,38.32,21.4,44.91l-6.75-10c17.15,3.1,34.36,6.44,51.64,9.26,16.72,2.73,33.54,4.83,50.28,7.41a31.21,31.21,0,0,1,9.42,3,11,11,0,0,1,4.54,15.75c-1.76,2.77-4,4.32-7.54,3.08-21.16-7.5-43.42-9.49-65.37-13-7.38-1.19-14.7-2.72-22-4.25-17.73-3.68-30.11-14.06-37.65-30.41-2.09-4.52-3.8-9.29-6.43-13.48-1.79-2.87-4.88-6.83-7.38-6.81s-5.58,3.93-7.49,6.76c-2.2,3.26-3.5,7.15-5,10.84C191,84,177.65,95.26,158.42,99c-16.14,3.11-32.47,5.23-48.61,8.27-12.06,2.28-24,5.27-35.93,8.07C71,116,68.17,118,65.65,115c-2.7-3.22-3.92-6.89-2.42-11.12,1.9-5.37,6.26-7.71,11.31-8.68,9.78-1.89,19.62-3.49,29.46-5,21-3.33,42-6.44,63-9.89,4.54-.74,8.91-2.49,14.44-4.09-2.34,3.7-4.24,6.7-6.27,9.93,10.21-5,18.47-22.8,20.67-44.59-6.29,7.54-15.11,9.15-23.42,10.5-25,4.07-50.21,7.26-75.34,10.79l-.6-1.39c1.65-2,3.18-4.09,5-6,17.91-18.77,40.27-29.63,65-36,13.76-3.56,27.32-7.11,38.35-16.86C208.51-.74,213.05-1,217,2.51c11.06,9.6,24.51,13.48,38.31,17,24.1,6.06,45.77,16.87,63.69,34.47,1.9,1.86,3.64,3.88,5.39,5.88A24.85,24.85,0,0,1,326.14,63.22Z"/><path class="cls-1" d="M322.36,182.83c3.74,2,8.17,3.87,12.11,6.49,23.88,15.89,37.82,37.56,37.09,67-.42,17.26-7,32.77-16.3,47-12.66,19.32-26.16,38.1-38.44,57.66-14.39,22.94-24.09,47.74-25.3,75.24-.21,4.74,0,9.5,0,14.25l-1.24.3c-2.06-9.28-4.58-18.49-6.12-27.86-5-30.33-.56-59.93,7.38-89.26,7.77-28.69,16.24-57.26,22.43-86.3C318.38,226.48,319.59,204.94,322.36,182.83Z"/><path class="cls-1" d="M130.57,450.46a139.65,139.65,0,0,0-5.64-45.81c-7.3-24.59-20.61-46-35-66.92C79.53,322.52,68.62,307.46,60,291.22c-21.89-41.31-5.37-87.76,37-107.09,1-.47,2.13-.79,3.72-1.37.38,7.24.7,14.11,1.12,21,2.06,33.94,10.62,66.55,19.7,99.13,6,21.59,11.85,43.34,15.78,65.37A156.86,156.86,0,0,1,130.57,450.46Z"/><path class="cls-1" d="M316,495c-.77-1.4-1.56-2.79-2.29-4.21-16.93-32.41-15.81-65.15-1.94-98.2,8.82-21,21.75-39.54,34.49-58.24,8.78-12.89,17.44-26,24.82-39.68,4.71-8.76,7-18.83,10.44-28.64,3.09,15.35,7.28,30.55,9,46,2.29,21-4.37,40.13-16.72,57.13-9.19,12.64-19.17,24.72-28,37.57a312.68,312.68,0,0,0-19.56,32.42A93.63,93.63,0,0,0,316,495Z"/><path class="cls-1" d="M40.63,266.17c4.6,25,18.45,45.1,32.62,65.13,14.7,20.77,29.1,41.75,38.44,65.7,12.3,31.53,12.75,62.58-3.24,93.08a23.33,23.33,0,0,1-2.6,4.1c3.91-28.53-6.8-52.81-22-75.45C73.27,402.85,61.41,387.8,50.1,372.38,37.28,354.89,30,335.43,31.73,313.64c.9-11.53,4.08-22.88,6.26-34.31C38.83,274.94,39.75,270.56,40.63,266.17Z"/><path class="cls-1" d="M70.63,533.54c7.68-19.92.87-36.34-12.55-50.7-10.32-11-21.69-21.09-32-32.14C15,438.86,5.46,425.86,1.17,409.79a29.09,29.09,0,0,1,.92-19.06c2.89-7.05,5.54-14.19,8.74-22.44,8.72,27,29.77,42.9,47.83,61.12,14.2,14.33,26.54,29.76,33,49.2.89,2.67,1.56,5.42,2.39,8.32-.38-.08-.7-.06-.74-.16-8-17.76-21-30.9-37.3-41.09-12.71-8-25-16.48-35.37-27.7,2,2.77,3.68,5.95,6.15,8.23C36.05,434.78,45.64,443,55,451.45,63,458.83,71.36,466,78.68,474.07c6.67,7.37,10.26,16.76,11.56,26.63.49,3.69.05,8.29-1.81,11.35-4.76,7.84-10.56,15.05-16,22.51Z"/><path class="cls-1" d="M402.08,415.66c-10.85,13.26-24.86,22.48-38.94,31.67-14.29,9.33-26,21.11-33.42,36.87l-1.23-.65c2.27-5.77,4.15-11.74,6.9-17.27,7.77-15.7,19.3-28.51,31.58-40.82,11-11,22-22.13,32.06-34.06,5.31-6.33,8.44-14.49,12.56-21.83,3,7.37,6.33,15,9.17,22.76,3.15,8.68.92,17.06-2.4,25.2C411.9,433.43,401,446.15,389,458c-7,6.89-14.34,13.39-21.24,20.36-9.59,9.69-18.2,20.26-19.31,34.5-.53,6.75,1,13.66,1.53,20.53-7.58-6.87-14.66-14.65-18-24.77-1.24-3.76-.43-8.6.6-12.64,3.62-14.16,11.74-25.62,22.82-34.92,8.14-6.83,16.75-13.1,25-19.85C389.09,434.05,396.81,425.91,402.08,415.66Z"/><path class="cls-1" d="M231,51.34c29.6,11.5,59.87,12.25,89.67,15.87,6.74.82,13.57,1.57,20.1,3.35,7.38,2,11.24,9.17,8.86,15.41-.55,1.43-3,3.27-4.37,3.09-25-3.48-50-7-74.89-11.06-9.13-1.49-18-4.37-27.07-6.54-4.48-1.07-7.14-3.81-8.41-8.19C233.79,59.63,232.5,56.06,231,51.34Z"/><path class="cls-1" d="M191,51.58c-2.12,5.8-3.63,10.88-5.89,15.6a8.51,8.51,0,0,1-5.28,3.9c-16,3.5-32.07,7.08-48.23,9.88-18,3.11-36.14,5.32-54.18,8.16-3.12.5-4.24-.72-5-3.2C70.36,79.38,74.24,72.08,82,70.38c9.2-2,18.69-2.77,28.05-4.11,21.19-3,42.41-5.89,63.55-9.24C179.08,56.16,184.34,53.72,191,51.58Z"/><path class="cls-1" d="M398.19,331.84c6.73,11.4,8.29,22.24,5,33.84-3.77,13.21-11.78,23.78-21.1,33.38-7.4,7.62-15.44,14.63-23.09,22-11.65,11.25-21.85,23.65-29.58,38a127.12,127.12,0,0,1,16.7-35.76q10.88-15.8,22.65-31C382.55,374.53,395.4,356.3,398.19,331.84Z"/><path class="cls-1" d="M23.63,333.43c2.71,19.11,11.37,35.33,22.83,50.28,6.77,8.84,13.55,17.68,20.13,26.66,9.65,13.16,18.55,26.77,24.1,42.29.5,1.41,1,2.82,1.42,4.25.09.26-.1.62-.33,1.77-11.15-21.9-28.88-37.25-45.86-53.35-10.76-10.2-20.85-21.12-26-35.5C15.48,357.28,16.23,345.09,23.63,333.43Z"/></g></g></svg>